<svg width="110" height="65" viewBox="0 0 110 65" fill="none" xmlns="http://www.w3.org/2000/svg">
<path d="M62.1719 23.2168C62.1719 23.015 62.2435 22.8424 62.3867 22.6992C62.5299 22.556 62.7025 22.4844 62.9043 22.4844L70.8633 22.4746H70.873C71.0749 22.4746 71.2474 22.5462 71.3906 22.6895C71.5339 22.8327 71.6055 23.0052 71.6055 23.207C71.6055 23.4089 71.5339 23.5814 71.3906 23.7246C71.2474 23.8678 71.0749 23.9395 70.873 23.9395H70.8633L63.6367 23.9492L63.6465 28.0605C63.679 28.0605 63.7051 28.0573 63.7246 28.0508L68.9785 28.002H69.0859C69.2552 28.002 69.4017 28.0801 69.5254 28.2363C69.6556 28.3926 69.7207 28.5391 69.7207 28.6758C69.7207 28.8971 69.6523 29.0859 69.5156 29.2422C69.3789 29.3919 69.2031 29.4668 68.9883 29.4668L63.7441 29.5156H63.6562L63.666 35.3652V35.3848C63.666 35.5866 63.5944 35.7591 63.4512 35.9023C63.3079 36.0456 63.1354 36.1172 62.9336 36.1172C62.7318 36.1172 62.5592 36.0456 62.416 35.9023C62.2728 35.7591 62.2012 35.5866 62.2012 35.3848V35.375L62.1719 23.2168ZM74.0273 35.9902C73.8255 35.9902 73.653 35.9186 73.5098 35.7754C73.3665 35.6322 73.2949 35.4596 73.2949 35.2578L73.2656 23.2559V23.2461C73.2656 23.0443 73.3372 22.8717 73.4805 22.7285C73.6237 22.5853 73.7962 22.5137 73.998 22.5137C74.1999 22.5137 74.3724 22.5853 74.5156 22.7285C74.6589 22.8717 74.7305 23.0443 74.7305 23.2461V23.2559L74.7598 34.5254H82.4062C82.6081 34.5254 82.7806 34.597 82.9238 34.7402C83.0671 34.8835 83.1387 35.056 83.1387 35.2578C83.1387 35.4596 83.0671 35.6322 82.9238 35.7754C82.7806 35.9186 82.6081 35.9902 82.4062 35.9902H74.0273ZM84.125 23.2461C84.125 23.0508 84.2031 22.888 84.3594 22.7578C84.5221 22.6211 84.7077 22.5527 84.916 22.5527C85.1569 22.5527 85.3457 22.6699 85.4824 22.9043L89.1836 28.8223L92.8066 22.9824C92.8457 22.9108 92.9238 22.8359 93.041 22.7578C93.1647 22.6732 93.2721 22.6309 93.3633 22.6309C93.513 22.6309 93.6237 22.6406 93.6953 22.6602C93.7734 22.6797 93.8646 22.7448 93.9688 22.8555C94.1055 22.9987 94.1738 23.1549 94.1738 23.3242C94.1738 23.487 94.1348 23.6335 94.0566 23.7637L89.877 30.4824L89.8086 35.4531C89.8086 35.6549 89.737 35.8275 89.5938 35.9707C89.4505 36.1139 89.278 36.1855 89.0762 36.1855C88.8743 36.1855 88.7018 36.1139 88.5586 35.9707C88.4154 35.8275 88.3438 35.6549 88.3438 35.4531V35.4336L88.4121 30.3555L84.2422 23.6855C84.1641 23.5553 84.125 23.4089 84.125 23.2461Z" fill="#212940"/>
<path d="M24.825 10.15C24.875 10.4333 24.9083 10.6333 24.925 10.75C24.9583 10.85 24.975 10.9917 24.975 11.175C24.975 11.725 24.85 12.2417 24.6 12.725C24.3667 13.1917 24.0417 13.525 23.625 13.725C23.2917 13.275 22.8833 12.8917 22.4 12.575C21.9167 12.2417 21.3833 11.975 20.8 11.775C20.2333 11.5583 19.6417 11.4 19.025 11.3C18.4083 11.2 17.8083 11.15 17.225 11.15C16.6417 11.15 16.0917 11.2 15.575 11.3C15.075 11.3833 14.625 11.5083 14.225 11.675C13.8417 11.825 13.5333 12.0167 13.3 12.25C13.0833 12.4833 12.975 12.75 12.975 13.05C13.025 13.4167 13.25 13.7917 13.65 14.175C14.05 14.5417 14.5417 14.9083 15.125 15.275C15.7083 15.625 16.35 15.975 17.05 16.325C17.7667 16.675 18.4667 17.0083 19.15 17.325C20 17.725 20.7333 18.1 21.35 18.45C21.9667 18.7833 22.475 19.1583 22.875 19.575C23.275 19.975 23.575 20.4333 23.775 20.95C23.975 21.4667 24.075 22.0917 24.075 22.825C24.075 23.675 23.9333 24.475 23.65 25.225C23.3667 25.9583 22.95 26.6 22.4 27.15C21.8667 27.7 21.2167 28.125 20.45 28.425C19.6833 28.7417 18.825 28.9 17.875 28.9C16.9417 28.9 15.9333 28.7583 14.85 28.475C13.7667 28.1917 12.75 27.8 11.8 27.3C10.8667 26.8167 10.0833 26.2583 9.45 25.625C8.83333 24.975 8.525 24.2917 8.525 23.575C8.525 23.2417 8.61667 22.8167 8.8 22.3C9 21.7833 9.35 21.2417 9.85 20.675C9.9 21.175 10.1667 21.7667 10.65 22.45C11.15 23.1333 11.8917 23.7667 12.875 24.35C13.7917 24.8833 14.7333 25.275 15.7 25.525C16.6833 25.7583 17.6 25.875 18.45 25.875C19.3833 25.875 20.1417 25.7583 20.725 25.525C21.3083 25.2917 21.7667 25.0167 22.1 24.7C22.4333 24.3667 22.6667 24.0333 22.8 23.7C22.9333 23.3667 23.0083 23.1 23.025 22.9C23.0083 22.5667 22.85 22.25 22.55 21.95C22.2667 21.6333 21.875 21.3333 21.375 21.05C20.8917 20.75 20.325 20.45 19.675 20.15C19.025 19.85 18.35 19.55 17.65 19.25C16.6 18.7833 15.6917 18.35 14.925 17.95C14.175 17.5333 13.55 17.1167 13.05 16.7C12.5667 16.2667 12.2083 15.8167 11.975 15.35C11.7583 14.8833 11.65 14.35 11.65 13.75C11.65 12.8167 11.9333 11.9333 12.5 11.1C13.0667 10.2667 13.8833 9.63333 14.95 9.2C15.4833 8.96667 16.05 8.8 16.65 8.7C17.2667 8.6 17.8667 8.55 18.45 8.55C19.55 8.55 20.625 8.7 21.675 9C22.725 9.3 23.775 9.68333 24.825 10.15ZM31.9037 19.075C32.937 17.5417 33.9537 16.1333 34.9537 14.85C35.9704 13.55 36.937 12.4333 37.8537 11.5C38.7704 10.5667 39.612 9.84167 40.3787 9.325C41.1454 8.80833 41.812 8.55 42.3787 8.55C42.5954 8.55 42.8287 8.63333 43.0787 8.8C43.3454 8.96667 43.587 9.18333 43.8037 9.45C44.037 9.71667 44.2287 10.0083 44.3787 10.325C44.5287 10.625 44.6037 10.9167 44.6037 11.2C43.5704 11.5333 42.5537 11.975 41.5537 12.525C40.5704 13.0583 39.6204 13.6833 38.7037 14.4C37.8037 15.1 36.937 15.8833 36.1037 16.75C35.287 17.6167 34.5454 18.5417 33.8787 19.525C34.1454 20.2083 34.4704 20.9417 34.8537 21.725C35.2537 22.4917 35.687 23.2417 36.1537 23.975C36.6204 24.6917 37.1204 25.3583 37.6537 25.975C38.187 26.5917 38.7287 27.0833 39.2787 27.45C39.1954 27.6333 39.0537 27.8083 38.8537 27.975C38.6537 28.1417 38.437 28.2917 38.2037 28.425C37.9704 28.575 37.7204 28.6917 37.4537 28.775C37.2037 28.8583 36.9704 28.9 36.7537 28.9C36.3204 28.9 35.9204 28.6917 35.5537 28.275C35.187 27.875 34.812 27.2667 34.4287 26.45C34.062 25.6167 33.6704 24.5917 33.2537 23.375C32.8537 22.1417 32.4037 20.7083 31.9037 19.075ZM28.1287 29.025C27.4954 28.875 26.9704 28.6083 26.5537 28.225C26.137 27.8583 25.7537 27.3917 25.4037 26.825C25.5537 26.5083 25.7287 26.0917 25.9287 25.575C26.1454 25.0583 26.4037 24.425 26.7037 23.675C27.0037 22.9083 27.362 22 27.7787 20.95C28.1954 19.8833 28.6787 18.6417 29.2287 17.225C29.5787 16.325 29.862 15.5667 30.0787 14.95C30.312 14.3333 30.5037 13.7333 30.6537 13.15C30.8204 12.55 30.9787 11.8917 31.1287 11.175C31.2787 10.4583 31.4537 9.55 31.6537 8.45C32.3537 8.58333 32.987 8.89167 33.5537 9.375C34.137 9.85833 34.637 10.4417 35.0537 11.125C34.8704 11.3583 34.6537 11.7167 34.4037 12.2C34.1704 12.6667 33.9037 13.2333 33.6037 13.9C33.3037 14.5667 32.9704 15.3083 32.6037 16.125C32.237 16.9417 31.8537 17.8083 31.4537 18.725C30.5537 20.725 29.8454 22.5583 29.3287 24.225C28.812 25.875 28.412 27.475 28.1287 29.025ZM51.6367 18.375C52.8867 17.0083 54.0034 15.5583 54.9867 14.025C55.9867 12.4917 56.9117 10.7667 57.7617 8.85C58.1951 8.9 58.6117 9.01667 59.0117 9.2C59.4117 9.38333 59.7284 9.59167 59.9617 9.825C59.0451 10.925 58.2117 11.925 57.4617 12.825C56.7284 13.725 56.0534 14.575 55.4367 15.375C54.8201 16.1583 54.2451 16.9167 53.7117 17.65C53.1951 18.3667 52.6867 19.0917 52.1867 19.825C51.9367 20.675 51.7034 21.5333 51.4867 22.4C51.2701 23.2667 51.0784 24.1 50.9117 24.9C50.7451 25.6833 50.6117 26.4083 50.5117 27.075C50.4284 27.7583 50.3867 28.3417 50.3867 28.825C50.2034 28.825 49.9117 28.7833 49.5117 28.7C49.1117 28.6333 48.7034 28.55 48.2867 28.45C47.8701 28.35 47.4867 28.25 47.1367 28.15C46.8034 28.05 46.6034 27.9667 46.5367 27.9C46.8034 27.45 47.0617 26.9 47.3117 26.25C47.5784 25.5833 47.8367 24.8917 48.0867 24.175C48.3367 23.4417 48.5784 22.7083 48.8117 21.975C49.0451 21.225 49.2617 20.5333 49.4617 19.9C49.0451 18.6 48.6367 17.3833 48.2367 16.25C47.8534 15.1 47.4784 14.0667 47.1117 13.15C46.7451 12.2167 46.3951 11.4167 46.0617 10.75C45.7284 10.0833 45.4117 9.575 45.1117 9.225C45.2784 9.15833 45.5284 9.09167 45.8617 9.025C46.2117 8.95833 46.5867 8.89167 46.9867 8.825C47.4034 8.75833 47.8201 8.70833 48.2367 8.675C48.6701 8.625 49.0534 8.59167 49.3867 8.575C49.3867 8.99167 49.4201 9.5 49.4867 10.1C49.5701 10.7 49.6701 11.3417 49.7867 12.025C49.9201 12.7083 50.0701 13.4 50.2367 14.1C50.4034 14.8 50.5701 15.4417 50.7367 16.025C50.9034 16.6083 51.0617 17.1167 51.2117 17.55C51.3784 17.9667 51.5201 18.2417 51.6367 18.375Z" fill="#212940"/>
<path d="M0 40.8637C0 41.416 0.447715 41.8637 1 41.8637C1.55228 41.8637 2 41.416 2 40.8637H0ZM6.58904 30.6789L7.33689 30.015L7.33689 30.015L6.58904 30.6789ZM12.0137 39.8863L12.8333 39.3134L12.0137 39.8863ZM17.1918 54.289L16.2013 54.4267L17.1918 54.289ZM17.274 63.3936L16.2844 63.2499L17.274 63.3936ZM21.6301 46.8305L22.6082 47.0389L21.6301 46.8305ZM26.1507 41.7896L25.1551 41.8831L26.1507 41.7896ZM32.0685 38.4975L31.538 39.3452L32.0685 38.4975ZM36.589 44.0528L35.6794 44.4681L36.589 44.0528ZM109.707 45.2743C110.098 44.8838 110.098 44.2506 109.707 43.8601L103.343 37.4962C102.953 37.1056 102.319 37.1056 101.929 37.4962C101.538 37.8867 101.538 38.5198 101.929 38.9104L107.586 44.5672L101.929 50.2241C101.538 50.6146 101.538 51.2478 101.929 51.6383C102.319 52.0288 102.953 52.0288 103.343 51.6383L109.707 45.2743ZM2.20906 39.3542C2.30553 38.8104 1.9429 38.2914 1.3991 38.1949C0.855307 38.0985 0.336272 38.4611 0.239805 39.0049L2.20906 39.3542ZM0.99958 35.596C0.856071 36.1294 1.17207 36.678 1.70538 36.8215C2.2387 36.9651 2.78737 36.6491 2.93088 36.1157L0.99958 35.596ZM3.96862 33.0247C4.18763 32.5177 3.95416 31.9291 3.44716 31.7101C2.94015 31.4911 2.3516 31.7246 2.13259 32.2316L3.96862 33.0247ZM4.85576 29.068C4.32122 29.2069 4.0005 29.7529 4.1394 30.2874C4.27831 30.8219 4.82423 31.1427 5.35877 31.0038L4.85576 29.068ZM7.30723 33.3615C7.59402 33.8335 8.20912 33.9836 8.68111 33.6968C9.1531 33.41 9.30324 32.7949 9.01646 32.323L7.30723 33.3615ZM11.5248 37.123C11.2673 36.6344 10.6625 36.4471 10.1739 36.7046C9.68528 36.9621 9.49794 37.5669 9.75543 38.0555L11.5248 37.123ZM12.1545 42.0086C12.4228 42.4914 13.0316 42.6653 13.5144 42.397C13.9971 42.1287 14.171 41.5199 13.9027 41.0372L12.1545 42.0086ZM15.5911 44.6418C15.3865 44.1288 14.8048 43.8788 14.2918 44.0834C13.7788 44.2879 13.5287 44.8696 13.7333 45.3826L15.5911 44.6418ZM14.9646 48.9398C15.1225 49.4691 15.6795 49.7701 16.2087 49.6123C16.738 49.4544 17.039 48.8974 16.8812 48.3681L14.9646 48.9398ZM17.8439 52.1927C17.7341 51.6514 17.2063 51.3017 16.6651 51.4115C16.1238 51.5213 15.774 52.0491 15.8839 52.5903L17.8439 52.1927ZM16.3206 56.8716C16.3229 57.4238 16.7725 57.8697 17.3248 57.8673C17.8771 57.865 18.3229 57.4154 18.3206 56.8631L16.3206 56.8716ZM18.1885 62.0772C18.2105 61.5254 17.7809 61.0602 17.229 61.0383C16.6772 61.0164 16.212 61.446 16.1901 61.9978L18.1885 62.0772ZM18.6285 61.4887C18.7413 60.9481 18.3944 60.4184 17.8537 60.3056C17.3131 60.1929 16.7834 60.5398 16.6706 61.0805L18.6285 61.4887ZM17.7425 56.8547C17.5892 57.3853 17.8951 57.9396 18.4257 58.0929C18.9563 58.2461 19.5107 57.9402 19.6639 57.4096L17.7425 56.8547ZM20.9015 53.3242C21.0633 52.7961 20.7664 52.2369 20.2384 52.075C19.7104 51.9132 19.1511 52.2101 18.9893 52.7381L20.9015 53.3242ZM20.1663 48.6626C20.0271 49.1971 20.3476 49.7432 20.882 49.8823C21.4165 50.0215 21.9626 49.7011 22.1018 49.1666L20.1663 48.6626ZM22.9781 45.4835C23.1156 44.9486 22.7935 44.4035 22.2587 44.2659C21.7238 44.1284 21.1787 44.4505 21.0411 44.9853L22.9781 45.4835ZM21.9829 41.7642C21.8082 42.2881 22.0913 42.8545 22.6152 43.0292C23.1391 43.2039 23.7055 42.9208 23.8802 42.3969L21.9829 41.7642ZM25.0608 39.5907C25.3529 39.122 25.2098 38.5052 24.7411 38.2131C24.2724 37.921 23.6556 38.0641 23.3635 38.5328L25.0608 39.5907ZM26.9197 39.9717C26.8207 39.4284 26.3001 39.0681 25.7567 39.1671C25.2134 39.266 24.8531 39.7867 24.9521 40.3301L26.9197 39.9717ZM26.1634 45.185C26.5349 45.5937 27.1673 45.6239 27.576 45.2525C27.9847 44.881 28.0149 44.2486 27.6435 43.8399L26.1634 45.185ZM29.7283 40.4327C29.4607 40.9159 29.6355 41.5244 30.1187 41.792C30.6018 42.0595 31.2104 41.8847 31.4779 41.4016L29.7283 40.4327ZM32.7999 40.3411C33.1993 40.7225 33.8323 40.7079 34.2137 40.3085C34.5951 39.909 34.5805 39.276 34.1811 38.8946L32.7999 40.3411ZM36.5878 41.9331C36.2997 41.4618 35.6842 41.3134 35.213 41.6014C34.7418 41.8895 34.5933 42.505 34.8814 42.9762L36.5878 41.9331ZM39.1833 45.6766C39.7348 45.7075 40.2068 45.2855 40.2376 44.734C40.2685 44.1826 39.8465 43.7106 39.2951 43.6797L39.1833 45.6766ZM44.7832 43.663C44.2313 43.682 43.7992 44.1449 43.8183 44.6968C43.8373 45.2488 44.3002 45.6808 44.8522 45.6618L44.7832 43.663ZM49.5214 45.5672C50.0737 45.5672 50.5214 45.1195 50.5214 44.5672C50.5214 44.0149 50.0737 43.5672 49.5214 43.5672V45.5672ZM53.3587 43.5672C52.8064 43.5672 52.3587 44.0149 52.3587 44.5672C52.3587 45.1195 52.8064 45.5672 53.3587 45.5672V43.5672ZM57.1961 45.5672C57.7483 45.5672 58.1961 45.1195 58.1961 44.5672C58.1961 44.0149 57.7483 43.5672 57.1961 43.5672V45.5672ZM61.0334 43.5672C60.4811 43.5672 60.0334 44.0149 60.0334 44.5672C60.0334 45.1195 60.4811 45.5672 61.0334 45.5672V43.5672ZM64.8707 45.5672C65.423 45.5672 65.8707 45.1195 65.8707 44.5672C65.8707 44.0149 65.423 43.5672 64.8707 43.5672V45.5672ZM68.708 43.5672C68.1558 43.5672 67.708 44.0149 67.708 44.5672C67.708 45.1195 68.1558 45.5672 68.708 45.5672V43.5672ZM72.5454 45.5672C73.0977 45.5672 73.5454 45.1195 73.5454 44.5672C73.5454 44.0149 73.0977 43.5672 72.5454 43.5672V45.5672ZM76.3827 43.5672C75.8304 43.5672 75.3827 44.0149 75.3827 44.5672C75.3827 45.1195 75.8304 45.5672 76.3827 45.5672V43.5672ZM80.22 45.5672C80.7723 45.5672 81.22 45.1195 81.22 44.5672C81.22 44.0149 80.7723 43.5672 80.22 43.5672V45.5672ZM84.0574 43.5672C83.5051 43.5672 83.0574 44.0149 83.0574 44.5672C83.0574 45.1195 83.5051 45.5672 84.0574 45.5672V43.5672ZM87.8947 45.5672C88.447 45.5672 88.8947 45.1195 88.8947 44.5672C88.8947 44.0149 88.447 43.5672 87.8947 43.5672V45.5672ZM91.732 43.5672C91.1797 43.5672 90.732 44.0149 90.732 44.5672C90.732 45.1195 91.1797 45.5672 91.732 45.5672V43.5672ZM95.5694 45.5672C96.1216 45.5672 96.5694 45.1195 96.5694 44.5672C96.5694 44.0149 96.1216 43.5672 95.5694 43.5672V45.5672ZM99.4067 43.5672C98.8544 43.5672 98.4067 44.0149 98.4067 44.5672C98.4067 45.1195 98.8544 45.5672 99.4067 45.5672V43.5672ZM103.244 45.5672C103.796 45.5672 104.244 45.1195 104.244 44.5672C104.244 44.0149 103.796 43.5672 103.244 43.5672V45.5672ZM107.081 43.5672C106.529 43.5672 106.081 44.0149 106.081 44.5672C106.081 45.1195 106.529 45.5672 107.081 45.5672V43.5672ZM2 40.8637C2 40.7277 2.06 40.1945 2.20906 39.3542L0.239805 39.0049C0.0950412 39.8209 0 40.5241 0 40.8637H2ZM2.93088 36.1157C3.22463 35.0241 3.57485 33.9363 3.96862 33.0247L2.13259 32.2316C1.68656 33.2642 1.30726 34.4526 0.99958 35.596L2.93088 36.1157ZM5.35877 31.0038C5.37591 30.9993 5.39351 30.9947 5.44428 31.0158C5.51163 31.0437 5.64765 31.1248 5.84119 31.3428L7.33689 30.015C6.67691 29.2716 5.82171 28.817 4.85576 29.068L5.35877 31.0038ZM5.84119 31.3428C6.39315 31.9645 6.86978 32.6415 7.30723 33.3615L9.01646 32.323C8.5337 31.5284 7.98773 30.7482 7.33689 30.015L5.84119 31.3428ZM9.75543 38.0555C10.1825 38.8658 10.6487 39.6791 11.1941 40.4593L12.8333 39.3134C12.3535 38.627 11.9308 37.8934 11.5248 37.123L9.75543 38.0555ZM11.1941 40.4593C11.5223 40.9287 11.8432 41.4484 12.1545 42.0086L13.9027 41.0372C13.5637 40.427 13.2069 39.8478 12.8333 39.3134L11.1941 40.4593ZM13.7333 45.3826C14.196 46.543 14.6096 47.7498 14.9646 48.9398L16.8812 48.3681C16.5108 47.1266 16.078 45.8629 15.5911 44.6418L13.7333 45.3826ZM15.8839 52.5903C16.0161 53.2422 16.1224 53.859 16.2013 54.4267L18.1823 54.1514C18.097 53.5378 17.9834 52.8799 17.8439 52.1927L15.8839 52.5903ZM16.2013 54.4267C16.2808 54.9991 16.3163 55.8603 16.3206 56.8716L18.3206 56.8631C18.3163 55.8391 18.2814 54.8648 18.1823 54.1514L16.2013 54.4267ZM16.1901 61.9978C16.1568 62.8365 16.1287 63.5429 16.1358 63.8682C16.1367 63.9133 16.1386 63.9634 16.1424 64.0127C16.1448 64.0432 16.1522 64.143 16.1827 64.2533C16.1898 64.2792 16.2387 64.4745 16.4004 64.6585C16.4954 64.7665 16.6869 64.935 16.987 64.9859C17.3018 65.0393 17.5575 64.9338 17.7105 64.8322C17.9512 64.6724 18.0506 64.453 18.0606 64.4328C18.0934 64.3664 18.1132 64.3086 18.123 64.2785C18.1776 64.1101 18.2219 63.8243 18.2636 63.5374L16.2844 63.2499C16.2321 63.6097 16.2102 63.6931 16.2207 63.6608C16.225 63.6476 16.2396 63.6032 16.2676 63.5467C16.2727 63.5363 16.3676 63.3232 16.6041 63.1661C16.755 63.0659 17.0086 62.961 17.3215 63.014C17.6196 63.0646 17.8093 63.2319 17.9025 63.3379C18.0606 63.5178 18.1063 63.7056 18.1105 63.7208C18.1254 63.775 18.1313 63.8161 18.1331 63.829C18.1355 63.8461 18.1363 63.8569 18.1364 63.8582C18.1366 63.8604 18.1359 63.8509 18.1353 63.8246C18.1299 63.5789 18.1534 62.9603 18.1885 62.0772L16.1901 61.9978ZM18.2636 63.5374C18.3628 62.8545 18.486 62.172 18.6285 61.4887L16.6706 61.0805C16.5209 61.7984 16.3902 62.5215 16.2844 63.2499L18.2636 63.5374ZM19.6639 57.4096C20.0569 56.0493 20.4808 54.6969 20.9015 53.3242L18.9893 52.7381C18.5736 54.0945 18.1414 55.4737 17.7425 56.8547L19.6639 57.4096ZM22.1018 49.1666C22.2855 48.461 22.4563 47.7517 22.6082 47.0389L20.6521 46.6221C20.5075 47.3007 20.3439 47.9805 20.1663 48.6626L22.1018 49.1666ZM22.6082 47.0389C22.6961 46.6262 22.8225 46.0885 22.9781 45.4835L21.0411 44.9853C20.8799 45.612 20.7469 46.1773 20.6521 46.6221L22.6082 47.0389ZM23.8802 42.3969C24.2798 41.1985 24.6948 40.1779 25.0608 39.5907L23.3635 38.5328C22.8632 39.3355 22.3876 40.5507 21.9829 41.7642L23.8802 42.3969ZM24.9521 40.3301C25.0274 40.7439 25.0962 41.2569 25.1551 41.8831L27.1463 41.696C27.0837 41.0298 27.0081 40.4572 26.9197 39.9717L24.9521 40.3301ZM25.1551 41.8831C25.2288 42.6671 25.3385 43.3189 25.4888 43.8449C25.6349 44.3562 25.8419 44.8312 26.1634 45.185L27.6435 43.8399C27.6197 43.8136 27.5207 43.6761 27.4119 43.2954C27.3073 42.9295 27.2134 42.4098 27.1463 41.696L25.1551 41.8831ZM31.4779 41.4016C31.8689 40.6956 32.176 40.1111 32.4308 39.6646C32.5574 39.4426 32.6423 39.3066 32.6921 39.2385C32.7234 39.1955 32.7031 39.2323 32.6384 39.2866C32.6087 39.3115 32.5078 39.3938 32.3451 39.4465C32.1555 39.508 31.8426 39.5359 31.538 39.3452L32.599 37.6498C32.2766 37.4481 31.9426 37.4746 31.7285 37.544C31.5414 37.6046 31.4128 37.7041 31.3523 37.7549C31.2259 37.861 31.1313 37.9845 31.0769 38.059C30.955 38.2259 30.8223 38.4479 30.6935 38.6736C30.4375 39.1225 30.0829 39.7923 29.7283 40.4327L31.4779 41.4016ZM31.538 39.3452C31.9741 39.6181 32.3966 39.9561 32.7999 40.3411L34.1811 38.8946C33.6981 38.4334 33.1696 38.0069 32.599 37.6498L31.538 39.3452ZM34.8814 42.9762C35.2053 43.5061 35.4736 44.0175 35.6794 44.4681L37.4987 43.6375C37.2589 43.1123 36.9527 42.53 36.5878 41.9331L34.8814 42.9762ZM35.6794 44.4681C35.8683 44.8821 36.2282 45.0928 36.4434 45.1956C36.6877 45.3122 36.9651 45.3915 37.2334 45.4497C37.7754 45.5673 38.4581 45.636 39.1833 45.6766L39.2951 43.6797C38.6043 43.6411 38.0452 43.5793 37.6576 43.4952C37.4612 43.4526 37.3519 43.4131 37.305 43.3907C37.229 43.3544 37.3929 43.4058 37.4987 43.6375L35.6794 44.4681ZM44.8522 45.6618C46.1826 45.6159 47.1949 45.5672 47.6027 45.5672V43.5672C47.1499 43.5672 46.0488 43.6193 44.7832 43.663L44.8522 45.6618ZM47.6027 45.5672H49.5214V43.5672H47.6027V45.5672ZM53.3587 45.5672H57.1961V43.5672H53.3587V45.5672ZM61.0334 45.5672H64.8707V43.5672H61.0334V45.5672ZM68.708 45.5672H72.5454V43.5672H68.708V45.5672ZM76.3827 45.5672H80.22V43.5672H76.3827V45.5672ZM84.0574 45.5672H87.8947V43.5672H84.0574V45.5672ZM91.732 45.5672H95.5694V43.5672H91.732V45.5672ZM99.4067 45.5672H103.244V43.5672H99.4067V45.5672ZM107.081 45.5672H109V43.5672H107.081V45.5672Z" fill="#212940" fill-opacity="0.8"/>
</svg>
